<?xml version="1.0" standalone="no"?>
<!DOCTYPE svg PUBLIC "-//W3C//DTD SVG 20010904//EN"
 "http://www.w3.org/TR/2001/REC-SVG-20010904/DTD/svg10.dtd">
<svg version="1.0" xmlns="http://www.w3.org/2000/svg"
 width="700.000000pt" height="700.000000pt" viewBox="0 0 700.000000 700.000000"
 preserveAspectRatio="xMidYMid meet">
<metadata>
Created by potrace 1.14, written by Peter Selinger 2001-2017
</metadata>
<g transform="translate(0.000000,700.000000) scale(0.100000,-0.100000)"
fill="#000000" stroke="none">
<path d="M1353 5770 c-29 -8 -49 -23 -68 -53 -17 -26 -18 -59 -19 -395 -1
-339 0 -370 18 -405 10 -21 26 -41 35 -46 17 -9 74 -17 186 -27 39 -3 81 -7
95 -9 14 -2 68 -7 120 -10 52 -4 106 -8 120 -10 14 -1 59 -6 100 -10 41 -4 91
-8 110 -10 19 -2 71 -6 115 -10 44 -3 96 -8 115 -10 19 -2 69 -7 110 -11 41
-3 89 -8 105 -9 17 -2 71 -6 120 -10 50 -4 98 -9 108 -11 10 -1 57 -6 105 -9
48 -3 98 -8 112 -10 14 -2 61 -6 105 -10 44 -3 98 -8 120 -10 22 -3 72 -7 110
-10 39 -3 89 -8 111 -11 55 -7 108 16 134 58 19 29 21 43 16 128 -4 52 -8 104
-10 115 -2 11 -7 56 -11 100 -3 44 -8 94 -10 110 -4 32 -11 100 -20 200 -3 33
-8 76 -10 95 -6 56 -17 184 -16 193 3 17 -31 68 -56 84 -25 17 -92 18 -1029
18 -551 0 -1010 -2 -1021 -5z"/>
<path d="M4364 5768 c-53 -14 -79 -60 -89 -155 -3 -32 -8 -76 -10 -98 -5 -43
-11 -103 -20 -205 -3 -36 -8 -76 -10 -90 -2 -14 -6 -60 -10 -103 -3 -43 -8
-86 -10 -95 -6 -35 -18 -188 -18 -226 2 -77 71 -131 158 -121 28 3 75 7 105
10 76 6 170 16 200 20 14 2 59 6 100 10 41 4 86 8 100 10 14 2 61 6 105 10 44
4 87 8 95 10 8 1 55 6 103 10 48 3 96 8 105 10 9 1 51 6 92 9 41 4 91 9 110
11 19 3 64 7 100 10 36 3 76 8 90 10 14 2 63 6 110 10 47 4 100 14 118 22 62
29 62 32 62 458 0 384 -2 408 -34 441 -39 38 -37 38 -793 39 -403 0 -744 -3
-759 -7z"/>
<path d="M3317 4044 c-1 -1 -38 -5 -82 -8 -44 -4 -96 -9 -115 -11 -19 -2 -73
-7 -120 -11 -47 -3 -98 -8 -115 -9 -16 -2 -68 -6 -115 -10 -47 -3 -96 -8 -110
-10 -14 -2 -63 -7 -110 -10 -47 -3 -101 -8 -120 -10 -19 -2 -69 -7 -110 -10
-72 -6 -114 -10 -217 -20 -27 -2 -79 -7 -118 -10 -38 -2 -95 -7 -125 -10 -30
-3 -81 -7 -112 -10 -32 -3 -84 -7 -115 -10 -79 -8 -134 -13 -228 -20 -92 -8
-143 -31 -170 -78 -17 -28 -18 -71 -21 -606 -2 -317 -5 -589 -8 -606 -3 -16
-8 -52 -12 -80 -3 -27 -8 -58 -9 -67 -2 -9 -6 -41 -9 -70 -6 -55 -10 -86 -20
-153 -3 -22 -10 -78 -16 -125 -6 -47 -13 -101 -15 -120 -3 -19 -7 -53 -10 -75
-17 -136 -37 -293 -40 -312 -2 -13 -9 -74 -16 -135 -11 -103 -11 -116 5 -150
28 -59 77 -83 138 -67 20 5 732 436 888 537 14 9 78 49 143 88 l119 72 462 0
c398 0 468 2 493 16 39 19 63 57 67 104 2 20 7 69 10 107 4 39 9 90 11 115 7
84 15 165 20 230 3 36 8 81 10 100 3 19 7 70 10 114 2 43 7 99 9 125 3 25 8
75 11 111 3 36 8 85 10 110 3 25 7 74 10 110 3 36 7 90 10 120 3 30 8 82 11
115 2 33 7 80 9 105 3 25 7 74 10 110 3 36 8 81 10 100 3 27 15 173 17 210 2
35 -8 58 -37 87 -34 34 -35 34 -110 31 -42 -1 -77 -3 -78 -4z"/>
<path d="M4272 4020 c-48 -22 -75 -59 -75 -103 0 -37 12 -208 18 -254 3 -17 7
-71 10 -120 3 -48 7 -106 10 -128 3 -22 7 -71 10 -110 3 -38 7 -92 10 -120 2
-27 7 -84 10 -125 3 -41 8 -95 10 -120 2 -25 7 -79 10 -120 3 -41 8 -95 10
-120 4 -46 12 -140 20 -245 3 -33 7 -85 10 -115 2 -30 7 -92 10 -137 4 -46 8
-92 10 -102 7 -36 35 -80 66 -102 l31 -22 697 0 c758 0 732 -2 775 56 20 28
21 35 22 890 0 911 1 906 -45 948 -23 22 -42 27 -121 34 -36 4 -84 8 -107 10
-23 3 -75 7 -115 10 -40 3 -86 8 -103 10 -16 2 -68 7 -115 10 -47 3 -98 8
-115 10 -16 2 -61 7 -100 10 -38 3 -88 8 -110 10 -22 3 -76 7 -120 10 -44 3
-91 8 -105 10 -14 2 -61 7 -105 10 -44 3 -93 8 -110 10 -16 2 -73 6 -125 10
-52 4 -102 9 -111 10 -9 2 -34 -5 -57 -15z"/>
</g>
</svg>
